<?xml version="1.0" encoding="utf-8"?>
<!-- Generator: Adobe Illustrator 26.5.0, SVG Export Plug-In . SVG Version: 6.00 Build 0)  -->
<svg version="1.1" id="Layer_1" xmlns="http://www.w3.org/2000/svg" xmlns:xlink="http://www.w3.org/1999/xlink" x="0px" y="0px"
	 viewBox="0 0 28 29.5" style="enable-background:new 0 0 28 29.5;" xml:space="preserve">
<style type="text/css">
	.st0{fill:#4C566A;}
</style>
<path class="st0" d="M11.4,2.4H0.2C0.1,2.4,0,2.5,0,2.6v6.2C0,8.9,0.1,9,0.2,9h9.5c0.1,0,0.2,0.1,0.2,0.2v20.1
	c0,0.1,0.1,0.2,0.2,0.2h7.7c0.1,0,0.2-0.1,0.2-0.2V9.1c0-0.1,0-0.1-0.1-0.1l-6.5-6.5C11.6,2.5,11.5,2.4,11.4,2.4z"/>
<path class="st0" d="M11.8,0.3L18,6.5c0,0,0.1,0.1,0.1,0.1h9.6c0.1,0,0.2-0.1,0.2-0.2V0.2C28,0.1,27.9,0,27.8,0H12
	C11.8,0,11.7,0.2,11.8,0.3z"/>
</svg>
